<svg width="72" height="72" viewBox="0 0 72 72" fill="none" xmlns="http://www.w3.org/2000/svg">
<rect x="0.75" y="0.75" width="70.5" height="70.5" fill="#F2F2F2" stroke="#BDBDBD" stroke-width="1.5"/>
<path d="M14.3482 29.2507C14.6163 30.1611 14.9883 31.039 15.4589 31.8626L14.1184 33.537C13.6808 34.0844 13.73 34.8647 14.2224 35.3578L16.5312 37.6445C17.0291 38.1377 17.8169 38.1809 18.3695 37.7474L20.0491 36.4307C20.9135 36.9238 21.8326 37.3085 22.7901 37.5795L23.0417 39.7199C23.1238 40.4135 23.7147 40.9337 24.415 40.9337H27.6812C28.3815 40.9337 28.9724 40.4135 29.0544 39.7199L29.2952 37.6553C30.3237 37.3898 31.3085 36.9942 32.2331 36.4794L33.858 37.7529C34.4106 38.1864 35.1984 38.1376 35.6963 37.6499L38.0051 35.3631C38.503 34.87 38.5467 34.0897 38.109 33.5424L36.8452 31.9547C37.3704 31.0551 37.7808 30.096 38.0543 29.0935L40.002 28.8714C40.7024 28.7901 41.2275 28.2048 41.2275 27.5112V24.2762C41.2275 23.5826 40.7023 22.9973 40.002 22.916L38.0817 22.6939C37.819 21.7022 37.4252 20.7539 36.9219 19.8652L38.1036 18.3859C38.5413 17.8386 38.4921 17.0583 37.9997 16.5652L35.6964 14.2838C35.1985 13.7907 34.4107 13.7474 33.8581 14.1809L32.4083 15.3188C31.4672 14.7715 30.4605 14.3543 29.4046 14.0725L29.1858 12.2138C29.1037 11.5202 28.5129 11 27.8126 11H24.5463C23.846 11 23.2552 11.5202 23.1731 12.2138L22.9543 14.0725C21.871 14.3597 20.837 14.7932 19.8741 15.3622L18.3695 14.1809C17.8169 13.7474 17.0291 13.7961 16.5312 14.2838L14.2225 16.5706C13.7246 17.0637 13.6808 17.844 14.1185 18.3913L15.3768 19.9682C14.8735 20.8677 14.4905 21.8269 14.2389 22.8239L12.2255 23.0515C11.5252 23.1328 11 23.718 11 24.4117V27.6467C11 28.3403 11.5252 28.9256 12.2255 29.0068L14.3482 29.2507ZM26.1821 20.4993C29.1584 20.4993 31.5821 22.8998 31.5821 25.8477C31.5821 28.7956 29.1584 31.1961 26.1821 31.1961C23.2059 31.1961 20.7822 28.7956 20.7822 25.8477C20.7822 22.8998 23.2059 20.4993 26.1821 20.4993Z" fill="#EB5757"/>
<path d="M61.325 21.7108L59.6016 20.2694C59.071 19.825 58.2885 19.8467 57.7853 20.3181L56.8333 21.2014C56.0291 20.8167 55.1756 20.5457 54.2947 20.3886L54.0268 19.088C53.89 18.4161 53.2608 17.9501 52.5713 18.0043L50.3227 18.1939C49.6334 18.2535 49.0917 18.8117 49.0699 19.4999L49.0262 20.8221C48.1617 21.131 47.3465 21.5536 46.6024 22.0847L45.4645 21.3369C44.8845 20.9576 44.1131 21.0659 43.6645 21.5916L42.2092 23.3093C41.7605 23.835 41.7824 24.6099 42.2583 25.1084L43.2541 26.1596C42.9094 26.9291 42.6632 27.7365 42.521 28.5656L41.0985 28.8528C40.4201 28.9882 39.9496 29.6114 40.0043 30.2942L40.1958 32.5214C40.256 33.2041 40.8195 33.7406 41.5143 33.7623L43.0517 33.811C43.3308 34.5371 43.6973 35.2254 44.1404 35.8702L43.2815 37.1544C42.8986 37.7288 43.008 38.4929 43.5386 38.9372L45.262 40.3787C45.7928 40.823 46.5751 40.8013 47.0785 40.3299L48.2055 39.284C48.9441 39.6254 49.7209 39.8801 50.5197 40.0318L50.8316 41.56C50.9684 42.2319 51.5975 42.6979 52.2869 42.6437L54.5355 42.4541C55.2249 42.3945 55.7665 41.8364 55.7884 41.1481L55.8376 39.6525C56.6583 39.3653 57.4351 38.9751 58.1518 38.4929L59.3938 39.3057C59.9737 39.685 60.7451 39.5767 61.1938 39.051L62.6491 37.3441C63.0977 36.8185 63.0758 36.0436 62.5998 35.545L61.5986 34.4938C61.9652 33.7244 62.2333 32.9115 62.3864 32.077L63.7542 31.8006C64.4326 31.6651 64.9031 31.042 64.8484 30.3591L64.6569 28.132C64.5967 27.4492 64.0332 26.9128 63.3384 26.8911L61.9652 26.8477C61.6806 26.0566 61.2976 25.3088 60.8217 24.6152L61.5712 23.4989C61.9651 22.9246 61.8557 22.1551 61.325 21.7108ZM52.8504 34.5859C50.4213 34.7919 48.2765 32.9982 48.0741 30.5923C47.8662 28.1863 49.6772 26.0621 52.1062 25.8616C54.5354 25.6556 56.6802 27.4493 56.8825 29.8552C57.0905 32.2613 55.2795 34.3855 52.8504 34.5859Z" fill="#F2C94C"/>
<path d="M32.2421 46.8955C31.5527 46.9659 31.0221 47.5403 31.0166 48.2285L31.0002 49.5995C30.9892 50.2877 31.5035 50.8729 32.1929 50.9597L33.2105 51.0897C33.3801 51.7021 33.6208 52.2873 33.9327 52.84L33.2761 53.642C32.8384 54.1784 32.8713 54.948 33.3582 55.4411L34.3266 56.4219C34.8135 56.915 35.5904 56.9692 36.143 56.5465L36.9581 55.9233C37.5326 56.2593 38.1399 56.5249 38.7745 56.7091L38.8839 57.7495C38.955 58.4323 39.535 58.9579 40.2298 58.9633L41.614 58.9796C42.3088 58.9904 42.8997 58.481 42.9873 57.7983L43.1131 56.812C43.8025 56.644 44.459 56.3894 45.0827 56.0534L45.8486 56.6657C46.3903 57.0992 47.1672 57.0667 47.6651 56.5844L48.6553 55.6253C49.1532 55.1431 49.2079 54.3736 48.7812 53.8263L48.1957 53.073C48.5568 52.4769 48.8359 51.8429 49.0274 51.1764L49.9356 51.0843C50.6249 51.0138 51.1556 50.4394 51.1611 49.7512L51.1774 48.3802C51.1884 47.6921 50.6742 47.1068 49.9848 47.0201L49.0984 46.9063C48.9288 46.2452 48.6772 45.6057 48.349 45.0097L48.9015 44.3377C49.3392 43.8013 49.3064 43.0318 48.8195 42.5387L47.8511 41.5579C47.3642 41.0647 46.5872 41.0105 46.0347 41.4332L45.3726 41.9372C44.749 41.5633 44.0815 41.2761 43.3812 41.081L43.2936 40.2302C43.2225 39.5474 42.6426 39.0218 41.9478 39.0164L40.5636 39.0002C39.8688 38.9893 39.2779 39.4987 39.1903 40.1815L39.0809 41.0269C38.3587 41.2111 37.6639 41.4929 37.0183 41.8613L36.3345 41.3086C35.7928 40.8751 35.0159 40.9077 34.518 41.3899L33.5223 42.3545C33.0244 42.8367 32.9697 43.6062 33.3964 44.1535L33.9818 44.9014C33.6426 45.4974 33.3746 46.1314 33.1995 46.7979L32.2421 46.8955ZM41.1763 45.3456C43.1623 45.3673 44.7544 46.9876 44.7325 48.9546C44.7106 50.9217 43.0747 52.4985 41.0887 52.4769C39.1028 52.4552 37.5107 50.835 37.5326 48.8679C37.5545 46.9009 39.1903 45.324 41.1763 45.3456Z" fill="#2F80ED"/>
<path d="M15.9234 47.9276C15.4109 47.9805 15.0164 48.4117 15.0123 48.9284L15.0001 49.9577C14.992 50.4743 15.3743 50.9137 15.8868 50.9789L16.6433 51.0764C16.7693 51.5362 16.9483 51.9756 17.1801 52.3905L16.6921 52.9926C16.3667 53.3954 16.3911 53.9731 16.7531 54.3433L17.473 55.0797C17.8349 55.4499 18.4125 55.4905 18.8233 55.1732L19.4292 54.7054C19.8563 54.9576 20.3078 55.157 20.7795 55.2953L20.8609 56.0764C20.9138 56.589 21.3449 56.9836 21.8614 56.9877L22.8904 56.9999C23.4069 57.008 23.8462 56.6256 23.9113 56.113L24.0049 55.3726C24.5174 55.2464 25.0054 55.0552 25.469 54.803L26.0384 55.2627C26.4411 55.5882 27.0187 55.5638 27.3888 55.2017L28.1249 54.4816C28.4951 54.1196 28.5357 53.5419 28.2185 53.131L27.7833 52.5654C28.0517 52.1179 28.2592 51.6419 28.4015 51.1415L29.0767 51.0724C29.5891 51.0195 29.9836 50.5883 29.9877 50.0716L29.9999 49.0423C30.008 48.5257 29.6257 48.0862 29.1133 48.0211L28.4543 47.9357C28.3283 47.4394 28.1412 46.9593 27.8972 46.5118L28.308 46.0074C28.6333 45.6046 28.6089 45.0269 28.247 44.6567L27.5271 43.9203C27.1651 43.5501 26.5875 43.5094 26.1768 43.8268L25.6846 44.2051C25.221 43.9244 24.7247 43.7088 24.2042 43.5623L24.1391 42.9236C24.0862 42.411 23.6551 42.0164 23.1385 42.0123L22.1096 42.0001C21.593 41.992 21.1538 42.3744 21.0886 42.887L21.0073 43.5217C20.4705 43.66 19.9539 43.8716 19.474 44.1482L18.9656 43.7332C18.563 43.4077 17.9854 43.4322 17.6153 43.7942L16.8751 44.5184C16.5049 44.8805 16.4643 45.4582 16.7815 45.869L17.2167 46.4305C16.9645 46.878 16.7652 47.354 16.6351 47.8544L15.9234 47.9276ZM22.5651 46.7641C24.0415 46.7803 25.225 47.9968 25.2087 49.4736C25.1925 50.9503 23.9763 52.1342 22.5 52.1179C21.0236 52.1016 19.8401 50.8852 19.8563 49.4084C19.8726 47.9317 21.0887 46.7478 22.5651 46.7641Z" fill="#219653"/>
</svg>
