<svg width="72" height="72" viewBox="0 0 72 72" fill="none" xmlns="http://www.w3.org/2000/svg">
<rect x="0.75" y="0.75" width="70.5" height="70.5" fill="#F2F2F2" stroke="#BDBDBD" stroke-width="1.5"/>
<path d="M30.2601 35.9836V17.1524C30.2601 16.5122 29.7201 16 29.045 16C28.3699 16 27.8298 16.5122 27.8298 17.1524V35.9836C25.0124 36.5213 22.8791 38.8859 22.8791 41.72C22.8791 44.554 25.0124 46.9186 27.8298 47.4564V55.8391C27.8298 56.4793 28.3699 56.9915 29.045 56.9915C29.7201 56.9915 30.2601 56.4793 30.2601 55.8391V47.4564C33.0775 46.9186 35.2109 44.554 35.2109 41.72C35.2109 38.8944 33.0865 36.5213 30.2601 35.9836ZM29.045 45.2625C26.9837 45.2625 25.3094 43.6748 25.3094 41.72C25.3094 39.7651 26.9837 38.1774 29.045 38.1774C31.1063 38.1774 32.7805 39.7651 32.7805 41.72C32.7805 43.6748 31.1063 45.2625 29.045 45.2625Z" fill="#2F80ED"/>
<path d="M59.3811 35.9836V17.1524C59.3811 16.5122 58.841 16 58.1659 16C57.4908 16 56.9507 16.5122 56.9507 17.1524V35.9836C54.1333 36.5213 52 38.8859 52 41.72C52 44.554 54.1333 46.9186 56.9507 47.4564V55.8391C56.9507 56.4793 57.4908 56.9915 58.1659 56.9915C58.841 56.9915 59.3811 56.4793 59.3811 55.8391V47.4564C62.1985 46.9186 64.3318 44.554 64.3318 41.72C64.3318 38.8944 62.2075 36.5213 59.3811 35.9836ZM58.1659 45.2625C56.1046 45.2625 54.4303 43.6748 54.4303 41.72C54.4303 39.7651 56.1046 38.1774 58.1659 38.1774C60.2272 38.1774 61.9014 39.7651 61.9014 41.72C61.9014 43.6748 60.2272 45.2625 58.1659 45.2625Z" fill="#219653"/>
<path d="M15.3811 26.3204V17.1524C15.3811 16.5122 14.841 16 14.1659 16C13.4908 16 12.9507 16.5122 12.9507 17.1524V26.3204C10.1333 26.8582 8 29.2228 8 32.0568C8 34.8909 10.1333 37.2555 12.9507 37.7933V55.8391C12.9507 56.4793 13.4908 56.9915 14.1659 56.9915C14.841 56.9915 15.3811 56.4793 15.3811 55.8391V37.7847C18.1985 37.2469 20.3318 34.8824 20.3318 32.0483C20.3318 29.2142 18.1985 26.8582 15.3811 26.3204ZM14.1659 35.5994C12.1046 35.5994 10.4303 34.0117 10.4303 32.0568C10.4303 30.102 12.1046 28.5143 14.1659 28.5143C16.2272 28.5143 17.9014 30.102 17.9014 32.0568C17.9014 34.0117 16.2182 35.5994 14.1659 35.5994Z" fill="#EB5757"/>
<path d="M45.0493 26.3204V17.1524C45.0493 16.5122 44.5092 16 43.8341 16C43.159 16 42.6189 16.5122 42.6189 17.1524V26.3204C39.8015 26.8582 37.6682 29.2228 37.6682 32.0568C37.6682 34.8909 39.8015 37.2555 42.6189 37.7933V55.8476C42.6189 56.4878 43.159 57 43.8341 57C44.5092 57 45.0493 56.4878 45.0493 55.8476V37.7847C47.8667 37.2469 50 34.8824 50 32.0483C50 29.2142 47.8757 26.8582 45.0493 26.3204ZM43.8341 35.5994C41.7728 35.5994 40.0986 34.0117 40.0986 32.0568C40.0986 30.102 41.7728 28.5143 43.8341 28.5143C45.8954 28.5143 47.5696 30.102 47.5696 32.0568C47.5696 34.0117 45.8954 35.5994 43.8341 35.5994Z" fill="#F2C94C"/>
</svg>
